<svg width="177" height="146" viewBox="0 0 177 146" fill="none" xmlns="http://www.w3.org/2000/svg">
<path d="M30.21 119.55C16.05 105.69 7.69997 84.63 10.9 65.55C14.1 46.47 28.9 29.48 48.12 17.19C67.34 4.9 91.07 -2.65999 106.24 5.27001C121.41 13.2 127.98 36.72 139.1 63C150.22 89.28 165.86 118.36 157.5 132.75C149.14 147.14 116.68 146.81 90.5 143.4C64.32 139.99 44.37 133.36 30.21 119.55Z" fill="#DDE9F3"/>
<path d="M18.2599 12.85H2.16998C1.84192 12.8474 1.52806 12.7159 1.29608 12.4839C1.0641 12.2519 0.932607 11.9381 0.929993 11.61C0.929993 11.2811 1.06061 10.9657 1.29315 10.7332C1.5257 10.5006 1.84111 10.37 2.16998 10.37H18.2599C18.4308 10.3628 18.6013 10.3914 18.7605 10.4538C18.9197 10.5162 19.0642 10.6112 19.1846 10.7326C19.3051 10.8539 19.3989 10.9991 19.4601 11.1588C19.5213 11.3185 19.5485 11.4892 19.54 11.66C19.527 11.9871 19.3851 12.2959 19.1453 12.5188C18.9055 12.7417 18.5872 12.8608 18.2599 12.85Z" fill="#6CB1E2"/>
<path d="M175.3 125.38H142.15C141.822 125.377 141.508 125.246 141.276 125.014C141.044 124.782 140.913 124.468 140.91 124.14C140.91 123.811 141.041 123.496 141.273 123.263C141.506 123.031 141.821 122.9 142.15 122.9H175.3C175.463 122.899 175.625 122.93 175.776 122.992C175.927 123.054 176.064 123.145 176.18 123.26C176.295 123.376 176.386 123.513 176.448 123.664C176.51 123.815 176.541 123.977 176.54 124.14C176.54 124.469 176.409 124.784 176.177 125.017C175.944 125.249 175.629 125.38 175.3 125.38Z" fill="#BE89BD"/>
<path d="M9.09998 0.890015H7.5C6.88144 0.890015 6.38 1.39145 6.38 2.01001V3.48999C6.38 4.10855 6.88144 4.60999 7.5 4.60999H9.09998C9.71853 4.60999 10.22 4.10855 10.22 3.48999V2.01001C10.22 1.39145 9.71853 0.890015 9.09998 0.890015Z" fill="#91D4D5"/>
<path d="M139.17 25.87H30.91C30.0135 25.87 29.1538 26.2261 28.52 26.86C27.8861 27.4939 27.53 28.3536 27.53 29.25V105.72C27.53 106.616 27.8861 107.476 28.52 108.11C29.1538 108.744 30.0135 109.1 30.91 109.1H72.46C73.1666 111.489 72.9956 114.052 71.9778 116.326C70.96 118.6 69.1625 120.435 66.91 121.5H105.76C105.76 121.5 96.51 118.33 98.89 109.1H139.17C140.066 109.1 140.926 108.744 141.56 108.11C142.194 107.476 142.55 106.616 142.55 105.72V29.25C142.55 28.3536 142.194 27.4939 141.56 26.86C140.926 26.2261 140.066 25.87 139.17 25.87Z" fill="#D9D9E5"/>
<path d="M86.6 101.03C86.9466 101.428 87.1292 101.942 87.1107 102.47C87.0922 102.997 86.874 103.497 86.5002 103.87C86.1265 104.242 85.6253 104.459 85.0979 104.476C84.5705 104.492 84.0565 104.308 83.66 103.96C83.5882 103.913 83.5269 103.852 83.48 103.78C83.1333 103.382 82.9507 102.868 82.9692 102.34C82.9878 101.813 83.206 101.312 83.5797 100.94C83.9534 100.568 84.4547 100.351 84.9821 100.334C85.5094 100.318 86.0234 100.502 86.42 100.85C86.4918 100.897 86.5531 100.958 86.6 101.03Z" fill="#BEBEC6"/>
<path d="M136.64 29.73H33.27C31.464 29.73 30 31.194 30 33V91.66C30 93.4659 31.464 94.93 33.27 94.93H136.64C138.446 94.93 139.91 93.4659 139.91 91.66V33C139.91 31.194 138.446 29.73 136.64 29.73Z" fill="white"/>
<path d="M140 38.28H30.09V94.92H140V38.28Z" fill="white" stroke="#DED9D5" stroke-width="0.5" stroke-miterlimit="10"/>
<path d="M39.83 35.52C40.5535 35.52 41.14 34.9335 41.14 34.21C41.14 33.4865 40.5535 32.9 39.83 32.9C39.1065 32.9 38.52 33.4865 38.52 34.21C38.52 34.9335 39.1065 35.52 39.83 35.52Z" fill="#F15C4E"/>
<path d="M46.22 34.22C46.2199 34.4795 46.1429 34.7332 45.9985 34.9488C45.8541 35.1645 45.6489 35.3324 45.4089 35.4312C45.169 35.5301 44.9051 35.5554 44.6507 35.5041C44.3963 35.4527 44.1629 35.3269 43.9801 35.1427C43.7973 34.9585 43.6734 34.7242 43.6239 34.4694C43.5745 34.2146 43.6019 33.9509 43.7026 33.7117C43.8032 33.4725 43.9727 33.2687 44.1894 33.1259C44.4062 32.9832 44.6605 32.908 44.92 32.91C45.2657 32.9127 45.5963 33.0518 45.8398 33.2972C46.0833 33.5426 46.22 33.8743 46.22 34.22Z" fill="#FDB849"/>
<path d="M50 35.52C50.7235 35.52 51.31 34.9335 51.31 34.21C51.31 33.4865 50.7235 32.9 50 32.9C49.2765 32.9 48.69 33.4865 48.69 34.21C48.69 34.9335 49.2765 35.52 50 35.52Z" fill="#5EBC5F"/>
<path d="M85.04 68.68C90.8832 68.68 95.62 63.9431 95.62 58.1C95.62 52.2568 90.8832 47.52 85.04 47.52C79.1968 47.52 74.46 52.2568 74.46 58.1C74.46 63.9431 79.1968 68.68 85.04 68.68Z" fill="#5EBC5F"/>
<path d="M80.33 58.63L84.29 61.53L89.01 55.54" stroke="white" stroke-width="1.82" stroke-linecap="round" stroke-linejoin="round"/>
<path d="M67.52 81.499C66.9553 81.499 66.42 81.4257 65.914 81.279C65.4153 81.125 65.0083 80.9197 64.693 80.663C64.5243 80.5384 64.44 80.3624 64.44 80.135C64.44 79.981 64.484 79.849 64.572 79.739C64.6673 79.6217 64.7773 79.563 64.902 79.563C65.034 79.563 65.1843 79.6144 65.353 79.717C65.6683 79.9444 65.9983 80.1094 66.343 80.212C66.6877 80.3147 67.069 80.366 67.487 80.366C68.0223 80.366 68.433 80.2744 68.719 80.091C69.005 79.9004 69.148 79.6254 69.148 79.266C69.148 78.9874 69.0123 78.7747 68.741 78.628C68.477 78.474 68.0333 78.3274 67.41 78.188C66.7647 78.0487 66.2403 77.8874 65.837 77.704C65.4337 77.5207 65.1293 77.286 64.924 77C64.7187 76.714 64.616 76.351 64.616 75.911C64.616 75.4564 64.7443 75.0494 65.001 74.69C65.2577 74.3307 65.6133 74.052 66.068 73.854C66.53 73.6487 67.047 73.546 67.619 73.546C68.6677 73.546 69.522 73.8247 70.182 74.382C70.2773 74.4627 70.3433 74.5434 70.38 74.624C70.424 74.6974 70.446 74.7927 70.446 74.91C70.446 75.064 70.3983 75.1997 70.303 75.317C70.215 75.427 70.1087 75.482 69.984 75.482C69.9107 75.482 69.841 75.471 69.775 75.449C69.7163 75.427 69.6357 75.3867 69.533 75.328C69.2323 75.108 68.939 74.9467 68.653 74.844C68.3743 74.734 68.0297 74.679 67.619 74.679C67.1203 74.679 66.7243 74.7817 66.431 74.987C66.145 75.185 66.002 75.4637 66.002 75.823C66.002 76.1237 66.1303 76.3547 66.387 76.516C66.6437 76.6774 67.08 76.8277 67.696 76.967C68.3487 77.1137 68.8767 77.2787 69.28 77.462C69.6907 77.638 70.0023 77.8654 70.215 78.144C70.435 78.4227 70.545 78.771 70.545 79.189C70.545 79.6437 70.4167 80.047 70.16 80.399C69.9107 80.7437 69.555 81.015 69.093 81.213C68.6383 81.4037 68.114 81.499 67.52 81.499ZM75.9756 75.911C76.1883 75.911 76.357 75.9697 76.4816 76.087C76.6063 76.2044 76.6686 76.362 76.6686 76.56V80.828C76.6686 81.0187 76.6026 81.1727 76.4706 81.29C76.346 81.4074 76.181 81.466 75.9756 81.466C75.7776 81.466 75.62 81.411 75.5026 81.301C75.3853 81.191 75.3266 81.0407 75.3266 80.85V80.575C75.158 80.8684 74.9306 81.0957 74.6446 81.257C74.3586 81.411 74.036 81.488 73.6766 81.488C72.3566 81.488 71.6966 80.7474 71.6966 79.266V76.56C71.6966 76.362 71.759 76.2044 71.8836 76.087C72.0083 75.9697 72.1733 75.911 72.3786 75.911C72.5913 75.911 72.76 75.9697 72.8846 76.087C73.0093 76.2044 73.0716 76.362 73.0716 76.56V79.277C73.0716 79.6584 73.1486 79.9407 73.3026 80.124C73.4566 80.3074 73.6986 80.399 74.0286 80.399C74.41 80.399 74.7143 80.2744 74.9416 80.025C75.1763 79.7684 75.2936 79.431 75.2936 79.013V76.56C75.2936 76.362 75.356 76.2044 75.4806 76.087C75.6053 75.9697 75.7703 75.911 75.9756 75.911ZM80.4868 81.488C79.9514 81.488 79.4784 81.3744 79.0678 81.147C78.6644 80.9197 78.3528 80.597 78.1328 80.179C77.9128 79.761 77.8028 79.2734 77.8028 78.716C77.8028 78.1587 77.9164 77.6674 78.1438 77.242C78.3784 76.8094 78.7048 76.4757 79.1228 76.241C79.5408 76.0064 80.0211 75.889 80.5638 75.889C80.8498 75.889 81.1358 75.9294 81.4218 76.01C81.7151 76.0907 81.9718 76.2007 82.1918 76.34C82.4264 76.494 82.5438 76.6884 82.5438 76.923C82.5438 77.0844 82.5034 77.2164 82.4228 77.319C82.3494 77.4144 82.2504 77.462 82.1258 77.462C82.0451 77.462 81.9608 77.4437 81.8728 77.407C81.7848 77.3704 81.6968 77.3264 81.6088 77.275C81.4474 77.1797 81.2934 77.1064 81.1468 77.055C81.0001 76.9964 80.8314 76.967 80.6408 76.967C80.1861 76.967 79.8341 77.1174 79.5848 77.418C79.3428 77.7114 79.2218 78.1367 79.2218 78.694C79.2218 79.244 79.3428 79.6694 79.5848 79.97C79.8341 80.2634 80.1861 80.41 80.6408 80.41C80.8241 80.41 80.9854 80.3844 81.1248 80.333C81.2714 80.2744 81.4328 80.1974 81.6088 80.102C81.7188 80.036 81.8141 79.9884 81.8948 79.959C81.9754 79.9224 82.0561 79.904 82.1368 79.904C82.2541 79.904 82.3531 79.9554 82.4338 80.058C82.5144 80.1607 82.5548 80.289 82.5548 80.443C82.5548 80.5677 82.5254 80.6777 82.4668 80.773C82.4154 80.861 82.3274 80.9417 82.2028 81.015C81.9754 81.1617 81.7114 81.279 81.4108 81.367C81.1101 81.4477 80.8021 81.488 80.4868 81.488ZM85.8579 81.488C85.3225 81.488 84.8495 81.3744 84.4389 81.147C84.0355 80.9197 83.7239 80.597 83.5039 80.179C83.2839 79.761 83.1739 79.2734 83.1739 78.716C83.1739 78.1587 83.2875 77.6674 83.5149 77.242C83.7495 76.8094 84.0759 76.4757 84.4939 76.241C84.9119 76.0064 85.3922 75.889 85.9349 75.889C86.2209 75.889 86.5069 75.9294 86.7929 76.01C87.0862 76.0907 87.3429 76.2007 87.5629 76.34C87.7975 76.494 87.9149 76.6884 87.9149 76.923C87.9149 77.0844 87.8745 77.2164 87.7939 77.319C87.7205 77.4144 87.6215 77.462 87.4969 77.462C87.4162 77.462 87.3319 77.4437 87.2439 77.407C87.1559 77.3704 87.0679 77.3264 86.9799 77.275C86.8185 77.1797 86.6645 77.1064 86.5179 77.055C86.3712 76.9964 86.2025 76.967 86.0119 76.967C85.5572 76.967 85.2052 77.1174 84.9559 77.418C84.7139 77.7114 84.5929 78.1367 84.5929 78.694C84.5929 79.244 84.7139 79.6694 84.9559 79.97C85.2052 80.2634 85.5572 80.41 86.0119 80.41C86.1952 80.41 86.3565 80.3844 86.4959 80.333C86.6425 80.2744 86.8039 80.1974 86.9799 80.102C87.0899 80.036 87.1852 79.9884 87.2659 79.959C87.3465 79.9224 87.4272 79.904 87.5079 79.904C87.6252 79.904 87.7242 79.9554 87.8049 80.058C87.8855 80.1607 87.9259 80.289 87.9259 80.443C87.9259 80.5677 87.8965 80.6777 87.8379 80.773C87.7865 80.861 87.6985 80.9417 87.5739 81.015C87.3465 81.1617 87.0825 81.279 86.7819 81.367C86.4812 81.4477 86.1732 81.488 85.8579 81.488ZM93.099 79.926C93.2236 79.926 93.3226 79.9737 93.396 80.069C93.4766 80.1644 93.517 80.2927 93.517 80.454C93.517 80.6814 93.3813 80.872 93.11 81.026C92.8606 81.1654 92.5783 81.279 92.263 81.367C91.9476 81.4477 91.647 81.488 91.361 81.488C90.4956 81.488 89.81 81.2387 89.304 80.74C88.798 80.2414 88.545 79.5594 88.545 78.694C88.545 78.144 88.655 77.6564 88.875 77.231C89.095 76.8057 89.403 76.4757 89.799 76.241C90.2023 76.0064 90.657 75.889 91.163 75.889C91.647 75.889 92.0686 75.9954 92.428 76.208C92.7873 76.4207 93.066 76.7214 93.264 77.11C93.462 77.4987 93.561 77.957 93.561 78.485C93.561 78.8004 93.4216 78.958 93.143 78.958H89.898C89.942 79.464 90.085 79.838 90.327 80.08C90.569 80.3147 90.921 80.432 91.383 80.432C91.6176 80.432 91.823 80.4027 91.999 80.344C92.1823 80.2854 92.3876 80.2047 92.615 80.102C92.835 79.9847 92.9963 79.926 93.099 79.926ZM91.196 76.857C90.822 76.857 90.5213 76.9744 90.294 77.209C90.074 77.4437 89.942 77.781 89.898 78.221H92.384C92.3693 77.7737 92.2593 77.4364 92.054 77.209C91.8486 76.9744 91.5626 76.857 91.196 76.857ZM96.6327 81.488C95.8334 81.488 95.188 81.3304 94.6967 81.015C94.462 80.8757 94.3447 80.6777 94.3447 80.421C94.3447 80.2744 94.385 80.157 94.4657 80.069C94.5464 79.9737 94.6454 79.926 94.7627 79.926C94.8874 79.926 95.0597 79.9847 95.2797 80.102C95.5144 80.212 95.727 80.2964 95.9177 80.355C96.1157 80.4137 96.365 80.443 96.6657 80.443C96.9737 80.443 97.212 80.3917 97.3807 80.289C97.5567 80.1864 97.6447 80.0434 97.6447 79.86C97.6447 79.7354 97.608 79.6364 97.5347 79.563C97.4687 79.4897 97.344 79.4237 97.1607 79.365C96.9847 79.299 96.7134 79.2257 96.3467 79.145C95.694 79.013 95.2247 78.826 94.9387 78.584C94.66 78.342 94.5207 78.0084 94.5207 77.583C94.5207 77.2604 94.616 76.9707 94.8067 76.714C94.9974 76.45 95.2577 76.2484 95.5877 76.109C95.925 75.9624 96.3064 75.889 96.7317 75.889C97.0397 75.889 97.3367 75.9294 97.6227 76.01C97.9087 76.0834 98.1654 76.1934 98.3927 76.34C98.6274 76.4867 98.7447 76.681 98.7447 76.923C98.7447 77.0697 98.7044 77.1944 98.6237 77.297C98.543 77.3924 98.444 77.44 98.3267 77.44C98.246 77.44 98.1654 77.4254 98.0847 77.396C98.0114 77.3594 97.916 77.308 97.7987 77.242C97.586 77.132 97.4027 77.0514 97.2487 77C97.0947 76.9414 96.904 76.912 96.6767 76.912C96.4054 76.912 96.189 76.967 96.0277 77.077C95.8737 77.187 95.7967 77.3374 95.7967 77.528C95.7967 77.7114 95.8774 77.8507 96.0387 77.946C96.2 78.0414 96.5117 78.1367 96.9737 78.232C97.465 78.3347 97.85 78.452 98.1287 78.584C98.4074 78.716 98.6054 78.881 98.7227 79.079C98.8474 79.277 98.9097 79.53 98.9097 79.838C98.9097 80.3367 98.7007 80.7364 98.2827 81.037C97.872 81.3377 97.322 81.488 96.6327 81.488ZM101.972 81.488C101.172 81.488 100.527 81.3304 100.036 81.015C99.8009 80.8757 99.6836 80.6777 99.6836 80.421C99.6836 80.2744 99.7239 80.157 99.8046 80.069C99.8852 79.9737 99.9842 79.926 100.102 79.926C100.226 79.926 100.399 79.9847 100.619 80.102C100.853 80.212 101.066 80.2964 101.257 80.355C101.455 80.4137 101.704 80.443 102.005 80.443C102.313 80.443 102.551 80.3917 102.72 80.289C102.896 80.1864 102.984 80.0434 102.984 79.86C102.984 79.7354 102.947 79.6364 102.874 79.563C102.808 79.4897 102.683 79.4237 102.5 79.365C102.324 79.299 102.052 79.2257 101.686 79.145C101.033 79.013 100.564 78.826 100.278 78.584C99.9989 78.342 99.8596 78.0084 99.8596 77.583C99.8596 77.2604 99.9549 76.9707 100.146 76.714C100.336 76.45 100.597 76.2484 100.927 76.109C101.264 75.9624 101.645 75.889 102.071 75.889C102.379 75.889 102.676 75.9294 102.962 76.01C103.248 76.0834 103.504 76.1934 103.732 76.34C103.966 76.4867 104.084 76.681 104.084 76.923C104.084 77.0697 104.043 77.1944 103.963 77.297C103.882 77.3924 103.783 77.44 103.666 77.44C103.585 77.44 103.504 77.4254 103.424 77.396C103.35 77.3594 103.255 77.308 103.138 77.242C102.925 77.132 102.742 77.0514 102.588 77C102.434 76.9414 102.243 76.912 102.016 76.912C101.744 76.912 101.528 76.967 101.367 77.077C101.213 77.187 101.136 77.3374 101.136 77.528C101.136 77.7114 101.216 77.8507 101.378 77.946C101.539 78.0414 101.851 78.1367 102.313 78.232C102.804 78.3347 103.189 78.452 103.468 78.584C103.746 78.716 103.944 78.881 104.062 79.079C104.186 79.277 104.249 79.53 104.249 79.838C104.249 80.3367 104.04 80.7364 103.622 81.037C103.211 81.3377 102.661 81.488 101.972 81.488Z" fill="#58595B"/>
<path d="M72.37 84.95C72.41 84.9 72.4583 84.875 72.515 84.875C72.5616 84.875 72.6033 84.8933 72.64 84.93C72.6766 84.9666 72.695 85.0116 72.695 85.065C72.695 85.115 72.68 85.1566 72.65 85.19L71.435 86.725V88.235C71.435 88.3016 71.415 88.3533 71.375 88.39C71.3383 88.4266 71.29 88.445 71.23 88.445C71.17 88.445 71.12 88.4266 71.08 88.39C71.0433 88.3533 71.025 88.3016 71.025 88.235V86.72L69.81 85.19C69.7766 85.1533 69.76 85.1116 69.76 85.065C69.76 85.0116 69.7783 84.9666 69.815 84.93C69.855 84.8933 69.9 84.875 69.95 84.875C70.0066 84.875 70.055 84.9 70.095 84.95L71.235 86.405L72.37 84.95ZM73.7371 88.455C73.5071 88.455 73.3037 88.4033 73.1271 88.3C72.9537 88.1966 72.8187 88.05 72.7221 87.86C72.6287 87.6666 72.5821 87.4433 72.5821 87.19C72.5821 86.9366 72.6287 86.715 72.7221 86.525C72.8187 86.3316 72.9537 86.1833 73.1271 86.08C73.3037 85.9766 73.5071 85.925 73.7371 85.925C73.9671 85.925 74.1704 85.9766 74.3471 86.08C74.5237 86.1833 74.6587 86.3316 74.7521 86.525C74.8487 86.715 74.8971 86.9366 74.8971 87.19C74.8971 87.4433 74.8487 87.6666 74.7521 87.86C74.6587 88.05 74.5237 88.1966 74.3471 88.3C74.1704 88.4033 73.9671 88.455 73.7371 88.455ZM73.7371 88.12C73.9771 88.12 74.1604 88.0416 74.2871 87.885C74.4171 87.725 74.4821 87.4933 74.4821 87.19C74.4821 86.8933 74.4171 86.665 74.2871 86.505C74.1571 86.3416 73.9737 86.26 73.7371 86.26C73.5004 86.26 73.3171 86.3416 73.1871 86.505C73.0571 86.665 72.9921 86.8933 72.9921 87.19C72.9921 87.49 73.0554 87.72 73.1821 87.88C73.3121 88.04 73.4971 88.12 73.7371 88.12ZM77.3505 85.935C77.4138 85.935 77.4622 85.9533 77.4955 85.99C77.5322 86.0266 77.5505 86.075 77.5505 86.135V88.25C77.5505 88.3066 77.5322 88.3533 77.4955 88.39C77.4622 88.4266 77.4138 88.445 77.3505 88.445C77.2905 88.445 77.2422 88.4283 77.2055 88.395C77.1722 88.3583 77.1555 88.3116 77.1555 88.255V88.005C77.0788 88.1516 76.9705 88.2633 76.8305 88.34C76.6938 88.4166 76.5388 88.455 76.3655 88.455C76.0755 88.455 75.8572 88.375 75.7105 88.215C75.5638 88.0516 75.4905 87.8116 75.4905 87.495V86.135C75.4905 86.075 75.5088 86.0266 75.5455 85.99C75.5822 85.9533 75.6322 85.935 75.6955 85.935C75.7588 85.935 75.8072 85.9533 75.8405 85.99C75.8772 86.0266 75.8955 86.075 75.8955 86.135V87.485C75.8955 87.7016 75.9388 87.8616 76.0255 87.965C76.1122 88.065 76.2488 88.115 76.4355 88.115C76.6488 88.115 76.8205 88.0466 76.9505 87.91C77.0805 87.77 77.1455 87.5866 77.1455 87.36V86.135C77.1455 86.075 77.1638 86.0266 77.2005 85.99C77.2372 85.9533 77.2872 85.935 77.3505 85.935ZM78.4932 84.87C78.5766 84.87 78.6432 84.9033 78.6932 84.97C78.7466 85.0333 78.7732 85.13 78.7732 85.26C78.7732 85.5233 78.6882 85.745 78.5182 85.925C78.4849 85.9583 78.4482 85.975 78.4082 85.975C78.3716 85.975 78.3399 85.9633 78.3132 85.94C78.2866 85.9133 78.2732 85.8833 78.2732 85.85C78.2732 85.8133 78.2866 85.7816 78.3132 85.755C78.3999 85.6683 78.4549 85.5583 78.4782 85.425C78.4049 85.4183 78.3432 85.39 78.2932 85.34C78.2466 85.29 78.2232 85.2266 78.2232 85.15C78.2232 85.0666 78.2482 85 78.2982 84.95C78.3516 84.8966 78.4166 84.87 78.4932 84.87ZM80.6508 85.935C80.7908 85.925 80.8608 85.9816 80.8608 86.105C80.8608 86.1583 80.8458 86.2016 80.8158 86.235C80.7858 86.265 80.7341 86.2833 80.6608 86.29L80.5108 86.305C80.2875 86.325 80.1208 86.405 80.0108 86.545C79.9041 86.6816 79.8508 86.8433 79.8508 87.03V88.245C79.8508 88.3116 79.8325 88.3616 79.7958 88.395C79.7591 88.4283 79.7108 88.445 79.6508 88.445C79.5908 88.445 79.5408 88.4283 79.5008 88.395C79.4641 88.3583 79.4458 88.3083 79.4458 88.245V86.135C79.4458 86.0716 79.4658 86.0233 79.5058 85.99C79.5458 85.9533 79.5941 85.935 79.6508 85.935C79.7041 85.935 79.7491 85.9533 79.7858 85.99C79.8225 86.0233 79.8408 86.07 79.8408 86.13V86.41C79.9108 86.2633 80.0091 86.1516 80.1358 86.075C80.2658 85.9983 80.4141 85.9533 80.5808 85.94L80.6508 85.935ZM83.0447 87.855C83.0813 87.855 83.113 87.87 83.1397 87.9C83.1663 87.93 83.1797 87.9683 83.1797 88.015C83.1797 88.0983 83.1213 88.175 83.0047 88.245C82.8847 88.315 82.758 88.3683 82.6247 88.405C82.4913 88.4383 82.3613 88.455 82.2347 88.455C81.858 88.455 81.5597 88.3433 81.3397 88.12C81.123 87.8966 81.0147 87.5883 81.0147 87.195C81.0147 86.945 81.063 86.725 81.1597 86.535C81.2563 86.3416 81.3913 86.1916 81.5647 86.085C81.7413 85.9783 81.9413 85.925 82.1647 85.925C82.4813 85.925 82.733 86.0283 82.9197 86.235C83.1063 86.4416 83.1997 86.7216 83.1997 87.075C83.1997 87.1416 83.1863 87.19 83.1597 87.22C83.133 87.25 83.0897 87.265 83.0297 87.265H81.4197C81.4497 87.8383 81.7213 88.125 82.2347 88.125C82.3647 88.125 82.4763 88.1083 82.5697 88.075C82.663 88.0383 82.763 87.99 82.8697 87.93C82.9563 87.88 83.0147 87.855 83.0447 87.855ZM82.1697 86.24C81.9563 86.24 81.7847 86.3066 81.6547 86.44C81.528 86.5733 81.453 86.7616 81.4297 87.005H82.8447C82.838 86.7583 82.7763 86.57 82.6597 86.44C82.543 86.3066 82.3797 86.24 82.1697 86.24ZM86.0804 85.925C86.6904 85.925 86.9954 86.245 86.9954 86.885V88.245C86.9954 88.305 86.9771 88.3533 86.9404 88.39C86.9071 88.4266 86.8604 88.445 86.8004 88.445C86.7404 88.445 86.6921 88.4266 86.6554 88.39C86.6188 88.3533 86.6004 88.305 86.6004 88.245V88.005C86.5371 88.1483 86.4404 88.26 86.3104 88.34C86.1804 88.4166 86.0304 88.455 85.8604 88.455C85.7038 88.455 85.5588 88.4233 85.4254 88.36C85.2954 88.2966 85.1921 88.2083 85.1154 88.095C85.0388 87.9816 85.0004 87.8566 85.0004 87.72C85.0004 87.5366 85.0471 87.395 85.1404 87.295C85.2338 87.1916 85.3871 87.1183 85.6004 87.075C85.8138 87.0283 86.1104 87.005 86.4904 87.005H86.6004V86.84C86.6004 86.64 86.5588 86.4933 86.4754 86.4C86.3954 86.3066 86.2638 86.26 86.0804 86.26C85.8538 86.26 85.6238 86.3216 85.3904 86.445C85.3004 86.5016 85.2371 86.53 85.2004 86.53C85.1604 86.53 85.1271 86.515 85.1004 86.485C85.0738 86.455 85.0604 86.4166 85.0604 86.37C85.0604 86.3233 85.0738 86.2833 85.1004 86.25C85.1304 86.2133 85.1771 86.1766 85.2404 86.14C85.3571 86.0733 85.4888 86.0216 85.6354 85.985C85.7854 85.945 85.9338 85.925 86.0804 85.925ZM85.9154 88.135C86.1154 88.135 86.2788 88.0683 86.4054 87.935C86.5354 87.7983 86.6004 87.6233 86.6004 87.41V87.265H86.5104C86.2171 87.265 85.9938 87.2783 85.8404 87.305C85.6871 87.3283 85.5771 87.37 85.5104 87.43C85.4471 87.4866 85.4154 87.5716 85.4154 87.685C85.4154 87.815 85.4621 87.9233 85.5554 88.01C85.6521 88.0933 85.7721 88.135 85.9154 88.135ZM87.9418 88.445C87.8818 88.445 87.8318 88.4283 87.7918 88.395C87.7551 88.3583 87.7368 88.3083 87.7368 88.245V85.07C87.7368 85.0066 87.7551 84.9583 87.7918 84.925C87.8318 84.8883 87.8818 84.87 87.9418 84.87C87.9985 84.87 88.0451 84.8883 88.0818 84.925C88.1218 84.9583 88.1418 85.0066 88.1418 85.07V88.245C88.1418 88.3083 88.1218 88.3583 88.0818 88.395C88.0451 88.4283 87.9985 88.445 87.9418 88.445ZM89.1039 88.445C89.0439 88.445 88.9939 88.4283 88.9539 88.395C88.9173 88.3583 88.8989 88.3083 88.8989 88.245V85.07C88.8989 85.0066 88.9173 84.9583 88.9539 84.925C88.9939 84.8883 89.0439 84.87 89.1039 84.87C89.1606 84.87 89.2073 84.8883 89.2439 84.925C89.2839 84.9583 89.3039 85.0066 89.3039 85.07V88.245C89.3039 88.3083 89.2839 88.3583 89.2439 88.395C89.2073 88.4283 89.1606 88.445 89.1039 88.445ZM92.1701 88.455C92.0168 88.455 91.8701 88.4366 91.7301 88.4C91.5934 88.3633 91.4718 88.3116 91.3651 88.245C91.3051 88.205 91.2618 88.1683 91.2351 88.135C91.2118 88.0983 91.2001 88.055 91.2001 88.005C91.2001 87.9616 91.2118 87.9266 91.2351 87.9C91.2618 87.87 91.2951 87.855 91.3351 87.855C91.3751 87.855 91.4334 87.88 91.5101 87.93C91.6101 87.99 91.7084 88.0383 91.8051 88.075C91.9051 88.1083 92.0284 88.125 92.1751 88.125C92.3551 88.125 92.4951 88.0933 92.5951 88.03C92.6951 87.9666 92.7451 87.875 92.7451 87.755C92.7451 87.6816 92.7268 87.6233 92.6901 87.58C92.6534 87.5333 92.5901 87.4933 92.5001 87.46C92.4101 87.4233 92.2784 87.3866 92.1051 87.35C91.8118 87.2866 91.6018 87.2016 91.4751 87.095C91.3484 86.9883 91.2851 86.8433 91.2851 86.66C91.2851 86.5166 91.3251 86.39 91.4051 86.28C91.4851 86.17 91.5951 86.0833 91.7351 86.02C91.8784 85.9566 92.0401 85.925 92.2201 85.925C92.3501 85.925 92.4751 85.9433 92.5951 85.98C92.7184 86.0133 92.8268 86.0616 92.9201 86.125C93.0334 86.205 93.0901 86.2883 93.0901 86.375C93.0901 86.4183 93.0768 86.455 93.0501 86.485C93.0234 86.515 92.9918 86.53 92.9551 86.53C92.9151 86.53 92.8551 86.5016 92.7751 86.445C92.6818 86.385 92.5934 86.3383 92.5101 86.305C92.4268 86.2716 92.3234 86.255 92.2001 86.255C92.0434 86.255 91.9168 86.29 91.8201 86.36C91.7268 86.43 91.6801 86.5233 91.6801 86.64C91.6801 86.7133 91.6968 86.7733 91.7301 86.82C91.7668 86.8633 91.8251 86.9033 91.9051 86.94C91.9884 86.9733 92.1068 87.0066 92.2601 87.04C92.4868 87.09 92.6618 87.145 92.7851 87.205C92.9118 87.265 93.0018 87.3383 93.0551 87.425C93.1084 87.5116 93.1351 87.6216 93.1351 87.755C93.1351 87.965 93.0468 88.135 92.8701 88.265C92.6934 88.3916 92.4601 88.455 92.1701 88.455ZM95.6374 87.855C95.6741 87.855 95.7058 87.87 95.7324 87.9C95.7591 87.93 95.7724 87.9683 95.7724 88.015C95.7724 88.0983 95.7141 88.175 95.5974 88.245C95.4774 88.315 95.3508 88.3683 95.2174 88.405C95.0841 88.4383 94.9541 88.455 94.8274 88.455C94.4508 88.455 94.1524 88.3433 93.9324 88.12C93.7158 87.8966 93.6074 87.5883 93.6074 87.195C93.6074 86.945 93.6558 86.725 93.7524 86.535C93.8491 86.3416 93.9841 86.1916 94.1574 86.085C94.3341 85.9783 94.5341 85.925 94.7574 85.925C95.0741 85.925 95.3258 86.0283 95.5124 86.235C95.6991 86.4416 95.7924 86.7216 95.7924 87.075C95.7924 87.1416 95.7791 87.19 95.7524 87.22C95.7258 87.25 95.6824 87.265 95.6224 87.265H94.0124C94.0424 87.8383 94.3141 88.125 94.8274 88.125C94.9574 88.125 95.0691 88.1083 95.1624 88.075C95.2558 88.0383 95.3558 87.99 95.4624 87.93C95.5491 87.88 95.6074 87.855 95.6374 87.855ZM94.7624 86.24C94.5491 86.24 94.3774 86.3066 94.2474 86.44C94.1208 86.5733 94.0458 86.7616 94.0224 87.005H95.4374C95.4308 86.7583 95.3691 86.57 95.2524 86.44C95.1358 86.3066 94.9724 86.24 94.7624 86.24ZM97.4995 88.125C97.6162 88.135 97.6745 88.1883 97.6745 88.285C97.6745 88.3416 97.6528 88.385 97.6095 88.415C97.5695 88.4416 97.5078 88.4516 97.4245 88.445L97.2895 88.435C97.0228 88.415 96.8262 88.335 96.6995 88.195C96.5728 88.055 96.5095 87.8433 96.5095 87.56V86.305H96.1745C96.1178 86.305 96.0728 86.2916 96.0395 86.265C96.0095 86.235 95.9945 86.1966 95.9945 86.15C95.9945 86.1 96.0095 86.06 96.0395 86.03C96.0728 86 96.1178 85.985 96.1745 85.985H96.5095V85.42C96.5095 85.3566 96.5278 85.3083 96.5645 85.275C96.6012 85.2383 96.6512 85.22 96.7145 85.22C96.7745 85.22 96.8228 85.2383 96.8595 85.275C96.8962 85.3083 96.9145 85.3566 96.9145 85.42V85.985H97.4695C97.5228 85.985 97.5645 86 97.5945 86.03C97.6278 86.06 97.6445 86.1 97.6445 86.15C97.6445 86.1966 97.6278 86.235 97.5945 86.265C97.5645 86.2916 97.5228 86.305 97.4695 86.305H96.9145V87.58C96.9145 87.7633 96.9512 87.8966 97.0245 87.98C97.1012 88.06 97.2145 88.105 97.3645 88.115L97.4995 88.125ZM98.2736 87.525C98.2403 87.525 98.2119 87.5133 98.1886 87.49C98.1653 87.4633 98.1519 87.4283 98.1486 87.385L98.0286 85.12C98.0219 85.0433 98.0419 84.9833 98.0886 84.94C98.1353 84.8933 98.1969 84.87 98.2736 84.87C98.3503 84.87 98.4119 84.8933 98.4586 84.94C98.5053 84.9833 98.5253 85.0433 98.5186 85.12L98.3986 87.385C98.3953 87.4316 98.3819 87.4666 98.3586 87.49C98.3353 87.5133 98.3069 87.525 98.2736 87.525ZM98.2786 88.445C98.1986 88.445 98.1319 88.42 98.0786 88.37C98.0253 88.3166 97.9986 88.2483 97.9986 88.165C97.9986 88.0816 98.0253 88.0133 98.0786 87.96C98.1319 87.9066 98.1986 87.88 98.2786 87.88C98.3553 87.88 98.4186 87.9066 98.4686 87.96C98.5219 88.0133 98.5486 88.0816 98.5486 88.165C98.5486 88.2483 98.5219 88.3166 98.4686 88.37C98.4186 88.42 98.3553 88.445 98.2786 88.445Z" fill="#59595B"/>
</svg>
